<?xml version="1.0" encoding="UTF-8"?>
<!DOCTYPE svg PUBLIC "-//W3C//DTD SVG 1.1//EN" "http://www.w3.org/Graphics/SVG/1.1/DTD/svg11.dtd">
<svg xmlns="http://www.w3.org/2000/svg" version="1.1" width="400px" height="525px"
   xmlns:xlink="http://www.w3.org/1999/xlink" stroke="lightgreen" fill="transparent" stroke-width="15">
   <g>
      <path id="_svg_logo_card" stroke-linecap="round" d="
      M 125 330
      l -60 0
      q -25 0 -25 -25
      l 0 -275
      q 0 -25 25 -25
      l 175 0
      q 25 0 25 25
      l 0 65
      m 0 35
      l 0 175
      q 0 25 -25 25
      " />

      <path id="_svg_logo_thumb" stroke-linecap="round" d="
      M 225 355
      l 0 -100
      a 40 40 0 0 0 -80 0
      l 0 120
      q 0 35 30 75
      t 30 75
      " />

      <path id="_svg_logo_hand" transform="rotate(10 330 525)" stroke-linecap="round" d="
      M 330 525
      l 0 -110
      m 0 -35
      l 0 -35
      q 0 -35 -35 -50
      t -50 -20
      " />
   </g>
</svg>
