<svg xmlns="http://www.w3.org/2000/svg" width="1120" height="560"><g stroke="#FF715B" fill="transparent" stroke-width="20" stroke-linecap="round"><path d="M212.96 373.572l-37.587 13.68q-23.493 8.551-32.043-14.941L49.274 113.895q-8.55-23.492 14.942-32.042l164.446-59.854q23.493-8.55 32.043 14.942l94.056 258.415q8.55 23.493-14.942 32.043l-4.698 1.71"/><path d="M315.48 362.862l-34.202-93.969a35 35 0 00-65.778 23.941l41.042 112.763q11.97 32.89 53.842 60.217t53.843 60.216M491.085 479.857L471.984 371.53m-6.078-34.469l-6.077-34.468q-6.078-34.468-43.151-43.163t-42.344-9.795"/></g><g stroke-linecap="round" stroke="#f8c630" fill="transparent" stroke-width="20"><path d="M907.04 373.572l37.587 13.68q23.493 8.551 32.043-14.941l94.056-258.416q8.55-23.492-14.942-32.042L891.338 21.999q-23.493-8.55-32.043 14.942l-94.056 258.415q-8.55 23.493 14.942 32.043l4.698 1.71"/><path d="M804.52 362.862l34.202-93.969a35 35 0 0165.778 23.941l-41.042 112.763q-11.97 32.89-53.842 60.217t-53.843 60.216M628.915 479.857l19.101-108.328m6.078-34.469l6.077-34.468q6.078-34.468 43.151-43.163t42.344-9.795"/></g></svg>
